<?xml version="1.0" encoding="utf-8"?>
<!-- Generator: Adobe Illustrator 26.4.1, SVG Export Plug-In . SVG Version: 6.00 Build 0)  -->
<svg version="1.1" id="Layer_1" xmlns="http://www.w3.org/2000/svg" xmlns:xlink="http://www.w3.org/1999/xlink" x="0px" y="0px"
	 viewBox="0 0 388 159" style="enable-background:new 0 0 388 159;" xml:space="preserve">
<style type="text/css">
	.st0{fill-rule:evenodd;clip-rule:evenodd;fill:#4F634B;}
	.st1{fill:#4F634B;}
</style>
<path class="st0" d="M131,24c0-4.7-3.2-8.9-7.8-10L68,0.3c-1.6-0.4-3.4-0.4-5,0L7.8,14C3.2,15.2,0,19.3,0,24v55
	c0,56.8,62.2,78.4,62.2,78.4l0,0c2.2,0.7,4.5,0.7,6.7,0l0,0c0,0,62.2-21.6,62.2-78.4L131,24z M124.1,24v55
	c0,51.8-56.5,71.6-57.5,71.9c-0.7,0.2-1.5,0.2-2.2,0c-1-0.4-57.5-20.1-57.5-71.9V24c0-1.6,1.1-2.9,2.6-3.3L64.7,7
	c0.6-0.1,1.1-0.1,1.7,0l55.2,13.7C123,21.1,124.1,22.5,124.1,24L124.1,24z"/>
<path class="st1" d="M83.2,29.6c-0.5-0.2-0.1-2.5-0.1-2.9c0-0.3,0-0.6-0.1-0.8c-0.1-0.2-0.3-0.4-0.5-0.6c-0.6-0.6-1.4-1.5-2.3-0.6
	c-1,1-1.9,2-2.8,3.1c-3.9-1-8-1.6-12.2-1.6c-26.4,0-47.9,21.4-47.9,47.8s21.5,47.8,47.9,47.8s47.9-21.4,47.9-47.8
	C113.1,53.9,100.7,36.7,83.2,29.6L83.2,29.6z M65.8,50.1c2.8-8.8,8.3-16.6,15-22.9c0.8-0.7,0.2,3,0.2,3c-0.2,3.3,0.7,4.3,1.5,7.4
	s1.9,6.2,2.2,9.4c0.5,3.9,0,7.9-1.1,11.7c-0.6,2.1-1.3,4.2-2.5,6c-1.2,1.8-2.9,3.4-5,4c-2.5,0.8-5.3,0.1-7.3-1.4
	c-2.1-1.5-3.5-3.9-4.1-6.4C63.9,57.4,64.6,53.6,65.8,50.1z M46.6,47.1c0.5-1.6,0.8-3.2,1-4.8c0.1-0.9,0.1-1.7,0.1-2.6
	c0-0.4,0-0.9,0.1-1.1c0.1-0.2,0.4-0.3,0.9,0c0.3,0.2,0.5,0.4,0.8,0.7c5.7,6.2,10.1,13.1,11.7,21.6c0.4,2,0.6,4.1-0.1,6
	c-0.7,1.9-2.4,3.7-4.7,4.2c-2.8,0.6-5.7-1-7.6-3C42.9,61.7,44.4,54.2,46.6,47.1z M33,82.6c-2.8-3.5-2.7-9.2-2.2-13.1
	c0.3-2.2,0.5-4.4,0.7-6.7c0.2-2.1,0-4.4,0.5-6.4c0.1,0.1,0.2,0.3,0.4,0.5c0.5,0.8,0.8,1.6,1.1,2.5c1.3,4.7,3.8,9,7.1,12.4
	c2.1,2.2,4.6,4.1,5.7,7.1c0.5,1.4,0.5,2.9-0.1,4.3C43.7,89,36,86.4,33,82.6z M91.2,99.6c-0.4,3.5-2.1,6.8-4.7,9.2
	c-2.1,2-5.1,3.4-7.9,2.7c-2.7-0.6-4.6-2.8-6.4-4.9c-1.8-2-3.8-4.2-6.5-4.6c-2.2-0.3-4.3,0.6-6.2,1.7s-3.6,2.5-5.6,3.4
	c-4.5,1.8-10.1,0.5-13.2-3.2c-1.3-1.6-2.2-3.6-2.2-5.7s1-4.2,2.8-5.3c2.5-1.5,6-0.8,8.3-2.7c1.4-1.1,2-2.8,2.3-4.5
	c0.4-1.7,0.5-3.5,1.2-5.1c1.2-2.7,3.9-4.6,6.8-5.4c2.9-0.8,6-0.6,8.9-0.2c2.8,0.4,5.7,1.1,8.1,2.6c2.7,1.7,4.8,4.7,4.6,7.9l2.6,1.4
	C89.9,87.7,91.7,94.8,91.2,99.6z M99,75.9c-1,1.9-2.7,3.4-4.6,4.4c-1.8,1-3.9,1.5-6,1c-2-0.4-3.8-1.9-4.4-3.9
	c-0.5-1.8,0.1-3.7,1.1-5.2s2.3-2.8,3.6-4.1c4-4.1,7.3-9,8.8-14.6c0.2-0.6,0.3-1.2,1.1-1.2c0,0,0.9,6.9,1,7.5
	c0.4,2.6,0.8,5.2,0.9,7.9C100.6,70.6,100.3,73.5,99,75.9z"/>
</svg>
