<?xml version="1.0" encoding="utf-8"?>
<!-- Generator: Adobe Illustrator 26.4.1, SVG Export Plug-In . SVG Version: 6.00 Build 0)  -->
<svg version="1.1" id="Layer_1" xmlns="http://www.w3.org/2000/svg" xmlns:xlink="http://www.w3.org/1999/xlink" x="0px" y="0px"
	 viewBox="0 0 388 159" style="enable-background:new 0 0 388 159;" xml:space="preserve">
<style type="text/css">
	.st0{fill-rule:evenodd;clip-rule:evenodd;fill:#4F634B;}
	.st1{fill:#4F634B;}
</style>
<path class="st0" d="M131,24c0-4.7-3.2-8.9-7.8-10L68,0.3c-1.6-0.4-3.4-0.4-5,0L7.8,14C3.2,15.2,0,19.3,0,24v55
	c0,56.8,62.2,78.4,62.2,78.4c0,0,0,0,0,0c2.2,0.7,4.5,0.7,6.7,0c0,0,0,0,0,0c0,0,62.2-21.6,62.2-78.4L131,24z M124.1,24v55
	c0,51.8-56.5,71.6-57.5,71.9c-0.7,0.2-1.5,0.2-2.2,0c-1-0.4-57.5-20.1-57.5-71.9V24c0-1.6,1.1-2.9,2.6-3.3L64.7,7
	c0.6-0.1,1.1-0.1,1.7,0l55.2,13.7C123,21.1,124.1,22.5,124.1,24L124.1,24z"/>
<path class="st1" d="M83.2,29.6c-0.5-0.2-0.1-2.5-0.1-2.9c0-0.3,0-0.6-0.1-0.8c-0.1-0.2-0.3-0.4-0.5-0.6c-0.6-0.6-1.4-1.5-2.3-0.6
	c-1,1-1.9,2-2.8,3.1c-3.9-1-8-1.6-12.2-1.6c-26.4,0-47.9,21.4-47.9,47.8c0,26.4,21.5,47.8,47.9,47.8c26.4,0,47.9-21.4,47.9-47.8
	C113.1,53.9,100.7,36.7,83.2,29.6L83.2,29.6z M65.8,50.1c2.8-8.8,8.3-16.6,15-22.9c0.8-0.7,0.2,3,0.2,3c-0.2,3.3,0.7,4.3,1.5,7.4
	c0.8,3.1,1.9,6.2,2.2,9.4c0.5,3.9,0,7.9-1.1,11.7c-0.6,2.1-1.3,4.2-2.5,6c-1.2,1.8-2.9,3.4-5,4c-2.5,0.8-5.3,0.1-7.3-1.4
	c-2.1-1.5-3.5-3.9-4.1-6.4C63.9,57.4,64.6,53.6,65.8,50.1z M46.6,47.1c0.5-1.6,0.8-3.2,1-4.8c0.1-0.9,0.1-1.7,0.1-2.6
	c0-0.4,0-0.9,0.1-1.1c0.1-0.2,0.4-0.3,0.9,0c0.3,0.2,0.5,0.4,0.8,0.7c5.7,6.2,10.1,13.1,11.7,21.6c0.4,2,0.6,4.1-0.1,6
	c-0.7,1.9-2.4,3.7-4.7,4.2c-2.8,0.6-5.7-1-7.6-3C42.9,61.7,44.4,54.2,46.6,47.1z M33,82.6c-2.8-3.5-2.7-9.2-2.2-13.1
	c0.3-2.2,0.5-4.4,0.7-6.7c0.2-2.1,0-4.4,0.5-6.4c0.1,0.1,0.2,0.3,0.4,0.5c0.5,0.8,0.8,1.6,1.1,2.5c1.3,4.7,3.8,9,7.1,12.4
	c2.1,2.2,4.6,4.1,5.7,7.1c0.5,1.4,0.5,2.9-0.1,4.3C43.7,89,36,86.4,33,82.6z M91.2,99.6c-0.4,3.5-2.1,6.8-4.7,9.2
	c-2.1,2-5.1,3.4-7.9,2.7c-2.7-0.6-4.6-2.8-6.4-4.9c-1.8-2-3.8-4.2-6.5-4.6c-2.2-0.3-4.3,0.6-6.2,1.7c-1.9,1.1-3.6,2.5-5.6,3.4
	c-4.5,1.8-10.1,0.5-13.2-3.2c-1.3-1.6-2.2-3.6-2.2-5.7c0-2.1,1-4.2,2.8-5.3c2.5-1.5,6-0.8,8.3-2.7c1.4-1.1,2-2.8,2.3-4.5
	c0.4-1.7,0.5-3.5,1.2-5.1c1.2-2.7,3.9-4.6,6.8-5.4c2.9-0.8,6-0.6,8.9-0.2c2.8,0.4,5.7,1.1,8.1,2.6c2.7,1.7,4.8,4.7,4.6,7.9l2.6,1.4
	C89.9,87.7,91.7,94.8,91.2,99.6z M99,75.9c-1,1.9-2.7,3.4-4.6,4.4c-1.8,1-3.9,1.5-6,1c-2-0.4-3.8-1.9-4.4-3.9
	c-0.5-1.8,0.1-3.7,1.1-5.2c1-1.5,2.3-2.8,3.6-4.1c4-4.1,7.3-9,8.8-14.6c0.2-0.6,0.3-1.2,1.1-1.2c0,0,0.9,6.9,1,7.5
	c0.4,2.6,0.8,5.2,0.9,7.9C100.6,70.6,100.3,73.5,99,75.9z"/>
<path class="st1" d="M152.8,19.2c-0.4-1.3-0.9-2.4-1.5-3c-0.6-0.7-1.1-1.3-1.5-1.8c-0.3-0.3-0.4-0.6-0.4-0.8
	c0.1-0.2,0.3-0.4,0.6-0.4h10.5c0.4,0,0.6,0.1,0.8,0.4c0.2,0.2,0.2,0.5,0.1,0.8c-0.1,0.3-0.2,0.5-0.3,0.8c-0.1,0.3-0.2,0.6-0.3,1
	c-0.1,0.4-0.1,0.8,0,1.3c0,0.5,0.1,1,0.3,1.7l3.4,13l3.4-13c0.2-0.7,0.3-1.2,0.3-1.7c0-0.5,0-0.9-0.1-1.3c-0.1-0.4-0.2-0.7-0.3-1
	c-0.1-0.3-0.2-0.6-0.3-0.8c-0.1-0.3-0.1-0.6,0.1-0.8c0.2-0.2,0.5-0.4,0.8-0.4h9.2c0.4,0,0.6,0.1,0.8,0.4c0.2,0.2,0.2,0.5,0.1,0.8
	c-0.1,0.3-0.2,0.5-0.3,0.8c-0.1,0.3-0.2,0.6-0.3,1c-0.1,0.4-0.1,0.8-0.1,1.3c0,0.5,0.1,1,0.3,1.7l3.4,13l3.4-13
	c0.2-0.7,0.3-1.2,0.3-1.7c0-0.5,0-0.9-0.1-1.3c-0.1-0.4-0.1-0.7-0.3-1c-0.1-0.3-0.2-0.6-0.3-0.8c-0.1-0.3-0.1-0.6,0.1-0.8
	c0.2-0.2,0.5-0.4,0.8-0.4h8.4c0.4,0,0.6,0.1,0.6,0.4c0.1,0.2-0.1,0.5-0.4,0.8c-0.2,0.3-0.5,0.5-0.7,0.8c-0.3,0.3-0.5,0.6-0.8,1
	c-0.3,0.4-0.5,0.8-0.8,1.3c-0.2,0.5-0.4,1-0.6,1.7l-6.5,24.2c-0.2,0.7-0.7,1.1-1.4,1.1h-5.8c-0.7,0-1.2-0.4-1.4-1.1l-4.3-15.9
	l-4.2,15.9c-0.2,0.7-0.7,1.1-1.5,1.1h-5.8c-0.7,0-1.2-0.4-1.4-1.1L152.8,19.2z"/>
<path class="st1" d="M207.5,12.7c1.9,0,3.6,0.4,5.1,1.2c1.5,0.8,2.8,1.8,3.9,3.3c1.1,1.4,1.9,3.1,2.5,5.1c0.6,2,0.9,4.2,0.9,6.6
	c0,2.4-0.3,4.6-0.9,6.6c-0.6,2-1.4,3.7-2.5,5.1c-1.1,1.4-2.4,2.5-3.9,3.3c-1.5,0.8-3.2,1.1-5.1,1.1c-1.9,0-3.6-0.4-5.1-1.1
	c-1.5-0.8-2.8-1.9-3.9-3.3c-1.1-1.4-1.9-3.1-2.6-5.1c-0.6-2-0.9-4.2-0.9-6.6c0-2.4,0.3-4.6,0.9-6.6c0.6-2,1.5-3.7,2.6-5.1
	c1.1-1.4,2.4-2.5,3.9-3.3C203.9,13.1,205.6,12.7,207.5,12.7z M207.5,38.9c1.2,0,2.1-0.9,2.7-2.7c0.7-1.8,1-4.3,1-7.3
	c0-1.5-0.1-2.9-0.3-4.1c-0.2-1.2-0.4-2.3-0.7-3.2c-0.3-0.9-0.7-1.6-1.2-2c-0.4-0.5-1-0.7-1.5-0.7c-0.6,0-1.1,0.2-1.6,0.7
	c-0.5,0.5-0.9,1.1-1.2,2c-0.3,0.9-0.6,1.9-0.7,3.2s-0.3,2.6-0.3,4.1c0,3.1,0.3,5.5,1,7.3C205.4,38,206.4,38.9,207.5,38.9z"/>
<path class="st1" d="M251.8,43.4c0.4,0.3,0.6,0.6,0.6,0.8s-0.2,0.3-0.6,0.3h-11.3c-0.8,0-1.2-0.4-1.2-1.1c0-0.3,0.1-0.5,0.1-0.8
	c0.1-0.3,0.1-0.6,0-1c0-0.4-0.1-0.8-0.3-1.3c-0.1-0.5-0.4-1.1-0.7-1.8L236,34h-2.9v4.6c0,0.7,0.1,1.3,0.2,1.8
	c0.1,0.5,0.2,0.9,0.4,1.3c0.2,0.4,0.4,0.7,0.5,1c0.2,0.3,0.4,0.5,0.5,0.8c0.2,0.3,0.2,0.6,0.1,0.8c-0.1,0.2-0.3,0.3-0.7,0.3H224
	c-0.8,0-1-0.4-0.6-1.1c0.2-0.3,0.4-0.5,0.5-0.8c0.2-0.3,0.4-0.6,0.5-1c0.2-0.4,0.3-0.8,0.4-1.3c0.1-0.5,0.2-1.1,0.2-1.8V19.2
	c0-0.7-0.1-1.2-0.2-1.7c-0.1-0.5-0.2-0.9-0.4-1.3c-0.1-0.4-0.3-0.7-0.5-1c-0.2-0.3-0.4-0.6-0.5-0.8c-0.2-0.3-0.2-0.6-0.1-0.8
	c0.1-0.2,0.4-0.4,0.7-0.4h14.5c1.9,0,3.5,0.2,5,0.7c1.5,0.5,2.7,1.2,3.7,2.1c1,0.9,1.8,2,2.3,3.3c0.5,1.3,0.8,2.7,0.8,4.2
	c0,2.1-0.5,4-1.5,5.6c-0.9,1.6-2.3,2.8-4.2,3.6l3.1,5.8c0.7,1.4,1.4,2.4,2.2,3.1C250.5,42.3,251.2,42.9,251.8,43.4z M237.1,27.9
	c0.9,0,1.7-0.1,2.3-0.3c0.6-0.2,1-0.5,1.4-0.8c0.4-0.4,0.6-0.8,0.7-1.4c0.1-0.6,0.2-1.2,0.2-1.8c0-0.7-0.1-1.3-0.2-1.8
	c-0.1-0.5-0.4-1-0.7-1.3c-0.3-0.4-0.8-0.7-1.4-0.9c-0.6-0.2-1.3-0.3-2.3-0.3h-4v8.6H237.1z"/>
<path class="st1" d="M281.1,38c0.3,0,0.5,0.3,0.5,0.8v5.4c0,0.5-0.2,0.8-0.5,0.8c-0.4,0-0.9-0.1-1.3-0.2c-0.5-0.2-1-0.3-1.6-0.3
	h-22.4c-0.8,0-1-0.4-0.6-1.1c0.2-0.3,0.4-0.5,0.5-0.8c0.2-0.3,0.4-0.6,0.5-1c0.2-0.4,0.3-0.8,0.4-1.3c0.1-0.5,0.2-1.1,0.2-1.8V19.2
	c0-0.7-0.1-1.2-0.2-1.7c-0.1-0.5-0.2-0.9-0.4-1.3c-0.1-0.4-0.3-0.7-0.5-1c-0.2-0.3-0.4-0.6-0.5-0.8c-0.2-0.3-0.2-0.6-0.1-0.8
	c0.1-0.2,0.4-0.4,0.7-0.4H266c0.4,0,0.6,0.1,0.7,0.4c0.1,0.2,0.1,0.5-0.1,0.8c-0.1,0.3-0.3,0.5-0.5,0.8c-0.2,0.3-0.4,0.6-0.5,1
	c-0.1,0.4-0.3,0.8-0.4,1.3c-0.1,0.5-0.2,1-0.2,1.7v19.3h13.2c0.6,0,1.1-0.1,1.6-0.2C280.2,38.1,280.7,38,281.1,38z"/>
<path class="st1" d="M298.7,13.2c1.9,0,3.6,0.4,5.1,1.1c1.5,0.7,2.8,1.8,3.9,3.2c1.1,1.4,1.9,3,2.5,5c0.6,1.9,0.9,4.1,0.9,6.4
	s-0.3,4.5-0.9,6.4c-0.6,1.9-1.4,3.5-2.5,4.9c-1.1,1.3-2.4,2.4-3.9,3.2c-1.5,0.7-3.2,1.1-5.1,1.1h-13.8c-0.8,0-1-0.4-0.6-1.1
	c0.2-0.3,0.4-0.5,0.5-0.8c0.2-0.3,0.4-0.6,0.5-1c0.2-0.4,0.3-0.8,0.4-1.3c0.1-0.5,0.2-1.1,0.2-1.8V19.2c0-0.7-0.1-1.2-0.2-1.7
	c-0.1-0.5-0.2-0.9-0.4-1.3c-0.1-0.4-0.3-0.7-0.5-1c-0.2-0.3-0.4-0.6-0.5-0.8c-0.2-0.3-0.2-0.6-0.1-0.8c0.1-0.2,0.4-0.4,0.7-0.4
	H298.7z M297.3,38.4c1.8,0,3.2-0.9,4-2.6c0.8-1.7,1.2-4.1,1.2-7c0-2.9-0.4-5.2-1.2-7c-0.8-1.8-2.1-2.6-4-2.6H294v19.2H297.3z"/>
<path class="st1" d="M152.8,67.2c-0.4-1.3-0.9-2.4-1.5-3c-0.6-0.7-1.1-1.3-1.5-1.8c-0.3-0.3-0.4-0.6-0.4-0.8
	c0.1-0.2,0.3-0.4,0.6-0.4h10.5c0.4,0,0.6,0.1,0.8,0.4c0.2,0.2,0.2,0.5,0.1,0.8c-0.1,0.3-0.2,0.5-0.3,0.8c-0.1,0.3-0.2,0.6-0.3,1
	c-0.1,0.4-0.1,0.8,0,1.3c0,0.5,0.1,1,0.3,1.7l3.4,13l3.4-13c0.2-0.7,0.3-1.2,0.3-1.7c0-0.5,0-0.9-0.1-1.3c-0.1-0.4-0.2-0.7-0.3-1
	c-0.1-0.3-0.2-0.6-0.3-0.8c-0.1-0.3-0.1-0.6,0.1-0.8c0.2-0.2,0.5-0.4,0.8-0.4h9.2c0.4,0,0.6,0.1,0.8,0.4c0.2,0.2,0.2,0.5,0.1,0.8
	c-0.1,0.3-0.2,0.5-0.3,0.8c-0.1,0.3-0.2,0.6-0.3,1c-0.1,0.4-0.1,0.8-0.1,1.3c0,0.5,0.1,1,0.3,1.7l3.4,13l3.4-13
	c0.2-0.7,0.3-1.2,0.3-1.7c0-0.5,0-0.9-0.1-1.3c-0.1-0.4-0.1-0.7-0.3-1c-0.1-0.3-0.2-0.6-0.3-0.8c-0.1-0.3-0.1-0.6,0.1-0.8
	c0.2-0.2,0.5-0.4,0.8-0.4h8.4c0.4,0,0.6,0.1,0.6,0.4c0.1,0.2-0.1,0.5-0.4,0.8c-0.2,0.3-0.5,0.5-0.7,0.8c-0.3,0.3-0.5,0.6-0.8,1
	c-0.3,0.4-0.5,0.8-0.8,1.3c-0.2,0.5-0.4,1-0.6,1.7l-6.5,24.2c-0.2,0.7-0.7,1.1-1.4,1.1h-5.8c-0.7,0-1.2-0.4-1.4-1.1l-4.3-15.9
	l-4.2,15.9c-0.2,0.7-0.7,1.1-1.5,1.1h-5.8c-0.7,0-1.2-0.4-1.4-1.1L152.8,67.2z"/>
<path class="st1" d="M206.8,86.5c0,0.7,0.1,1.3,0.2,1.8c0.1,0.5,0.2,0.9,0.4,1.3c0.2,0.4,0.4,0.7,0.5,1c0.2,0.3,0.4,0.5,0.5,0.8
	c0.2,0.3,0.2,0.6,0.1,0.8c-0.1,0.2-0.3,0.3-0.7,0.3h-10.2c-0.8,0-1-0.4-0.6-1.1c0.2-0.3,0.4-0.5,0.5-0.8c0.2-0.3,0.4-0.6,0.5-1
	c0.2-0.4,0.3-0.8,0.4-1.3c0.1-0.5,0.2-1.1,0.2-1.8V67.2c0-0.7-0.1-1.2-0.2-1.7c-0.1-0.5-0.2-0.9-0.4-1.3c-0.1-0.4-0.3-0.7-0.5-1
	c-0.2-0.3-0.4-0.6-0.5-0.8c-0.2-0.3-0.2-0.6-0.1-0.8c0.1-0.2,0.4-0.4,0.7-0.4h10.2c0.4,0,0.6,0.1,0.7,0.4c0.1,0.2,0.1,0.5-0.1,0.8
	c-0.1,0.3-0.3,0.5-0.5,0.8c-0.2,0.3-0.4,0.6-0.5,1c-0.1,0.4-0.3,0.8-0.4,1.3c-0.1,0.5-0.2,1-0.2,1.7V86.5z"/>
<path class="st1" d="M238.1,86c0.3,0,0.5,0.3,0.5,0.8v5.4c0,0.5-0.2,0.8-0.5,0.8c-0.4,0-0.9-0.1-1.3-0.2c-0.5-0.2-1-0.3-1.6-0.3
	h-22.4c-0.8,0-1-0.4-0.6-1.1c0.2-0.3,0.4-0.5,0.5-0.8c0.2-0.3,0.4-0.6,0.5-1c0.2-0.4,0.3-0.8,0.4-1.3c0.1-0.5,0.2-1.1,0.2-1.8V67.2
	c0-0.7-0.1-1.2-0.2-1.7c-0.1-0.5-0.2-0.9-0.4-1.3c-0.1-0.4-0.3-0.7-0.5-1c-0.2-0.3-0.4-0.6-0.5-0.8c-0.2-0.3-0.2-0.6-0.1-0.8
	c0.1-0.2,0.4-0.4,0.7-0.4H223c0.4,0,0.6,0.1,0.7,0.4c0.1,0.2,0.1,0.5-0.1,0.8c-0.1,0.3-0.3,0.5-0.5,0.8c-0.2,0.3-0.4,0.6-0.5,1
	c-0.1,0.4-0.3,0.8-0.4,1.3c-0.1,0.5-0.2,1-0.2,1.7v19.3h13.2c0.6,0,1.1-0.1,1.6-0.2C237.3,86.1,237.7,86,238.1,86z"/>
<path class="st1" d="M255.7,61.2c1.9,0,3.6,0.4,5.1,1.1c1.5,0.7,2.8,1.8,3.9,3.2c1.1,1.4,1.9,3,2.5,5c0.6,1.9,0.9,4.1,0.9,6.4
	c0,2.3-0.3,4.5-0.9,6.4c-0.6,1.9-1.4,3.5-2.5,4.9c-1.1,1.3-2.4,2.4-3.9,3.2c-1.5,0.7-3.2,1.1-5.1,1.1h-13.8c-0.8,0-1-0.4-0.6-1.1
	c0.2-0.3,0.4-0.5,0.5-0.8c0.2-0.3,0.4-0.6,0.5-1c0.2-0.4,0.3-0.8,0.4-1.3c0.1-0.5,0.2-1.1,0.2-1.8V67.2c0-0.7-0.1-1.2-0.2-1.7
	c-0.1-0.5-0.2-0.9-0.4-1.3c-0.1-0.4-0.3-0.7-0.5-1c-0.2-0.3-0.4-0.6-0.5-0.8c-0.2-0.3-0.2-0.6-0.1-0.8c0.1-0.2,0.4-0.4,0.7-0.4
	H255.7z M254.3,86.4c1.8,0,3.2-0.9,4-2.6c0.8-1.7,1.2-4.1,1.2-7c0-2.9-0.4-5.2-1.2-7c-0.8-1.8-2.1-2.6-4-2.6H251v19.2H254.3z"/>
<path class="st1" d="M297.5,86c0.3,0,0.5,0.3,0.5,0.8v5.4c0,0.5-0.2,0.8-0.5,0.8c-0.4,0-0.9-0.1-1.3-0.2c-0.5-0.2-1-0.3-1.6-0.3
	h-22.4c-0.8,0-1-0.4-0.6-1.1c0.2-0.3,0.4-0.5,0.5-0.8c0.2-0.3,0.4-0.6,0.5-1c0.2-0.4,0.3-0.8,0.4-1.3c0.1-0.5,0.2-1.1,0.2-1.8V67.2
	c0-0.7-0.1-1.2-0.2-1.7c-0.1-0.5-0.2-0.9-0.4-1.3c-0.1-0.4-0.3-0.7-0.5-1c-0.2-0.3-0.4-0.6-0.5-0.8c-0.2-0.3-0.2-0.6-0.1-0.8
	c0.1-0.2,0.4-0.4,0.7-0.4h10.2c0.4,0,0.6,0.1,0.7,0.4c0.1,0.2,0.1,0.5-0.1,0.8c-0.1,0.3-0.3,0.5-0.5,0.8c-0.2,0.3-0.4,0.6-0.5,1
	c-0.1,0.4-0.3,0.8-0.4,1.3c-0.1,0.5-0.2,1-0.2,1.7v19.3h13.2c0.6,0,1.1-0.1,1.6-0.2S297,86,297.5,86z"/>
<path class="st1" d="M310.4,86.5c0,0.7,0.1,1.3,0.2,1.8c0.1,0.5,0.2,0.9,0.4,1.3c0.2,0.4,0.4,0.7,0.5,1c0.2,0.3,0.4,0.5,0.5,0.8
	c0.2,0.3,0.2,0.6,0.1,0.8c-0.1,0.2-0.3,0.3-0.7,0.3h-10.2c-0.8,0-1-0.4-0.6-1.1c0.2-0.3,0.4-0.5,0.5-0.8c0.2-0.3,0.4-0.6,0.5-1
	c0.2-0.4,0.3-0.8,0.4-1.3c0.1-0.5,0.2-1.1,0.2-1.8V67.2c0-0.7-0.1-1.2-0.2-1.7c-0.1-0.5-0.2-0.9-0.4-1.3c-0.1-0.4-0.3-0.7-0.5-1
	c-0.2-0.3-0.4-0.6-0.5-0.8c-0.2-0.3-0.2-0.6-0.1-0.8c0.1-0.2,0.4-0.4,0.7-0.4h10.2c0.4,0,0.6,0.1,0.7,0.4c0.1,0.2,0.1,0.5-0.1,0.8
	c-0.1,0.3-0.3,0.5-0.5,0.8c-0.2,0.3-0.4,0.6-0.5,1c-0.1,0.4-0.3,0.8-0.4,1.3c-0.1,0.5-0.2,1-0.2,1.7V86.5z"/>
<path class="st1" d="M341.7,60.7c0.3,0,0.5,0.3,0.5,0.8V67c0,0.5-0.2,0.8-0.5,0.8c-0.4,0-0.9-0.1-1.3-0.2c-0.5-0.2-1-0.3-1.6-0.3
	h-13.2v6.6h5.9c0.6,0,1.1-0.1,1.5-0.2c0.5-0.1,0.9-0.2,1.3-0.2c0.4,0,0.6,0.3,0.6,0.8v5.4c0,0.5-0.2,0.8-0.6,0.8
	c-0.4,0-0.9-0.1-1.3-0.2c-0.5-0.2-1-0.3-1.5-0.3h-5.9v6.6c0,0.7,0.1,1.3,0.2,1.8c0.1,0.5,0.2,0.9,0.4,1.3c0.2,0.4,0.4,0.7,0.5,1
	c0.2,0.3,0.4,0.5,0.5,0.8c0.2,0.3,0.2,0.6,0.1,0.8c-0.1,0.2-0.3,0.3-0.7,0.3h-10.2c-0.8,0-1-0.4-0.6-1.1c0.2-0.3,0.4-0.5,0.5-0.8
	c0.2-0.3,0.4-0.6,0.5-1c0.2-0.4,0.3-0.8,0.4-1.3c0.1-0.5,0.2-1.1,0.2-1.8V67.2c0-0.7-0.1-1.2-0.2-1.7c-0.1-0.5-0.2-0.9-0.4-1.3
	c-0.1-0.4-0.3-0.7-0.5-1c-0.2-0.3-0.4-0.6-0.5-0.8c-0.2-0.3-0.2-0.6-0.1-0.8c0.1-0.2,0.4-0.4,0.7-0.4h22.4c0.6,0,1.1-0.1,1.6-0.2
	C340.8,60.8,341.3,60.7,341.7,60.7z"/>
<path class="st1" d="M354.6,67.3v6.6h5.9c0.6,0,1.1-0.1,1.5-0.2c0.5-0.1,0.9-0.2,1.3-0.2c0.4,0,0.6,0.3,0.6,0.8v5.4
	c0,0.5-0.2,0.8-0.6,0.8c-0.4,0-0.9-0.1-1.3-0.2c-0.5-0.2-1-0.3-1.5-0.3h-5.9v6.6h13.2c0.6,0,1.1-0.1,1.6-0.2s0.9-0.2,1.3-0.2
	c0.3,0,0.5,0.3,0.5,0.8v5.4c0,0.5-0.2,0.8-0.5,0.8c-0.4,0-0.9-0.1-1.3-0.2c-0.5-0.2-1-0.3-1.6-0.3h-22.4c-0.8,0-1-0.4-0.6-1.1
	c0.2-0.3,0.4-0.5,0.5-0.8c0.2-0.3,0.4-0.6,0.5-1c0.2-0.4,0.3-0.8,0.4-1.3c0.1-0.5,0.2-1.1,0.2-1.8V67.2c0-0.7-0.1-1.2-0.2-1.7
	c-0.1-0.5-0.2-0.9-0.4-1.3c-0.1-0.4-0.3-0.7-0.5-1c-0.2-0.3-0.4-0.6-0.5-0.8c-0.2-0.3-0.2-0.6-0.1-0.8c0.1-0.2,0.4-0.4,0.7-0.4h22.4
	c0.6,0,1.1-0.1,1.6-0.2c0.5-0.1,0.9-0.2,1.3-0.2c0.3,0,0.5,0.3,0.5,0.8V67c0,0.5-0.2,0.8-0.5,0.8c-0.4,0-0.9-0.1-1.3-0.2
	c-0.5-0.2-1-0.3-1.6-0.3H354.6z"/>
<path class="st1" d="M152.8,115.2c-0.4-1.3-0.9-2.4-1.5-3c-0.6-0.7-1.1-1.3-1.5-1.8c-0.3-0.3-0.4-0.6-0.4-0.8
	c0.1-0.2,0.3-0.4,0.6-0.4h10.5c0.4,0,0.6,0.1,0.8,0.4c0.2,0.2,0.2,0.5,0.1,0.8c-0.1,0.3-0.2,0.5-0.3,0.8c-0.1,0.3-0.2,0.6-0.3,1
	c-0.1,0.4-0.1,0.8,0,1.3c0,0.5,0.1,1,0.3,1.7l3.4,13l3.4-13c0.2-0.7,0.3-1.2,0.3-1.7c0-0.5,0-0.9-0.1-1.3c-0.1-0.4-0.2-0.7-0.3-1
	c-0.1-0.3-0.2-0.6-0.3-0.8c-0.1-0.3-0.1-0.6,0.1-0.8c0.2-0.2,0.5-0.4,0.8-0.4h9.2c0.4,0,0.6,0.1,0.8,0.4c0.2,0.2,0.2,0.5,0.1,0.8
	c-0.1,0.3-0.2,0.5-0.3,0.8c-0.1,0.3-0.2,0.6-0.3,1c-0.1,0.4-0.1,0.8-0.1,1.3c0,0.5,0.1,1,0.3,1.7l3.4,13l3.4-13
	c0.2-0.7,0.3-1.2,0.3-1.7c0-0.5,0-0.9-0.1-1.3c-0.1-0.4-0.1-0.7-0.3-1c-0.1-0.3-0.2-0.6-0.3-0.8c-0.1-0.3-0.1-0.6,0.1-0.8
	c0.2-0.2,0.5-0.4,0.8-0.4h8.4c0.4,0,0.6,0.1,0.6,0.4c0.1,0.2-0.1,0.5-0.4,0.8c-0.2,0.3-0.5,0.5-0.7,0.8c-0.3,0.3-0.5,0.6-0.8,1
	c-0.3,0.4-0.5,0.8-0.8,1.3c-0.2,0.5-0.4,1-0.6,1.7l-6.5,24.2c-0.2,0.7-0.7,1.1-1.4,1.1h-5.8c-0.7,0-1.2-0.4-1.4-1.1l-4.3-15.9
	l-4.2,15.9c-0.2,0.7-0.7,1.1-1.5,1.1h-5.8c-0.7,0-1.2-0.4-1.4-1.1L152.8,115.2z"/>
<path class="st1" d="M219.2,139.4c0.3,0.3,0.4,0.6,0.3,0.8c0,0.2-0.2,0.3-0.6,0.3h-10c-0.4,0-0.6-0.1-0.8-0.3
	c-0.1-0.2-0.2-0.5-0.1-0.8c0.1-0.3,0.2-0.5,0.3-0.8c0.1-0.3,0.2-0.6,0.3-1c0.1-0.4,0.1-0.8,0-1.3c0-0.5-0.1-1.1-0.3-1.8l-0.2-0.9
	h-6.4l-0.2,0.9c-0.2,0.7-0.3,1.3-0.3,1.8c0,0.5,0,0.9,0,1.3c0.1,0.4,0.2,0.7,0.3,1c0.1,0.3,0.3,0.5,0.4,0.8c0.1,0.3,0,0.6-0.1,0.8
	c-0.2,0.2-0.5,0.3-0.8,0.3h-8c-0.4,0-0.6-0.1-0.6-0.3c-0.1-0.2,0.1-0.5,0.4-0.8c0.5-0.5,1-1.1,1.5-1.8c0.6-0.7,1.1-1.7,1.5-3.1
	l6.4-24.2c0.1-0.3,0.3-0.6,0.5-0.8c0.2-0.2,0.5-0.4,0.9-0.4h4.9c0.3,0,0.6,0.1,0.8,0.4c0.3,0.2,0.5,0.5,0.6,0.8l6.4,24.2
	c0.4,1.4,0.9,2.4,1.4,3.1C218.2,138.3,218.7,138.9,219.2,139.4z M206.5,127.5l-1.6-5.9l-1.6,5.9H206.5z"/>
<path class="st1" d="M250.3,139.4c0.4,0.3,0.6,0.6,0.6,0.8c0,0.2-0.2,0.3-0.6,0.3H239c-0.8,0-1.2-0.4-1.2-1.1c0-0.3,0.1-0.5,0.1-0.8
	c0.1-0.3,0.1-0.6,0-1c0-0.4-0.1-0.8-0.3-1.3c-0.1-0.5-0.4-1.1-0.7-1.8l-2.4-4.6h-2.9v4.6c0,0.7,0.1,1.3,0.2,1.8
	c0.1,0.5,0.2,0.9,0.4,1.3c0.2,0.4,0.4,0.7,0.5,1c0.2,0.3,0.4,0.5,0.5,0.8c0.2,0.3,0.2,0.6,0.1,0.8c-0.1,0.2-0.3,0.3-0.7,0.3h-10.2
	c-0.8,0-1-0.4-0.6-1.1c0.2-0.3,0.4-0.5,0.5-0.8c0.2-0.3,0.4-0.6,0.5-1c0.2-0.4,0.3-0.8,0.4-1.3c0.1-0.5,0.2-1.1,0.2-1.8v-19.4
	c0-0.7-0.1-1.2-0.2-1.7c-0.1-0.5-0.2-0.9-0.4-1.3c-0.1-0.4-0.3-0.7-0.5-1c-0.2-0.3-0.4-0.6-0.5-0.8c-0.2-0.3-0.2-0.6-0.1-0.8
	c0.1-0.2,0.4-0.4,0.7-0.4H237c1.9,0,3.5,0.2,5,0.7c1.5,0.5,2.7,1.2,3.7,2.1c1,0.9,1.8,2,2.3,3.3c0.5,1.3,0.8,2.7,0.8,4.2
	c0,2.1-0.5,4-1.5,5.6c-0.9,1.6-2.3,2.8-4.2,3.6l3.1,5.8c0.7,1.4,1.4,2.4,2.2,3.1C249,138.3,249.7,138.9,250.3,139.4z M235.6,123.9
	c0.9,0,1.7-0.1,2.3-0.3c0.6-0.2,1-0.5,1.4-0.8c0.4-0.4,0.6-0.8,0.7-1.4c0.1-0.6,0.2-1.2,0.2-1.8c0-0.7-0.1-1.3-0.2-1.8
	c-0.1-0.5-0.4-1-0.7-1.3c-0.3-0.4-0.8-0.7-1.4-0.9c-0.6-0.2-1.3-0.3-2.3-0.3h-4v8.6H235.6z"/>
<path class="st1" d="M282.1,139.4c0.4,0.3,0.6,0.6,0.6,0.8c0,0.2-0.2,0.3-0.6,0.3h-11.3c-0.8,0-1.2-0.4-1.2-1.1
	c0-0.3,0.1-0.5,0.1-0.8c0.1-0.3,0.1-0.6,0-1c0-0.4-0.1-0.8-0.3-1.3c-0.1-0.5-0.4-1.1-0.7-1.8l-2.4-4.6h-2.9v4.6
	c0,0.7,0.1,1.3,0.2,1.8c0.1,0.5,0.2,0.9,0.4,1.3c0.2,0.4,0.4,0.7,0.5,1c0.2,0.3,0.4,0.5,0.5,0.8c0.2,0.3,0.2,0.6,0.1,0.8
	c-0.1,0.2-0.3,0.3-0.7,0.3h-10.2c-0.8,0-1-0.4-0.6-1.1c0.2-0.3,0.4-0.5,0.5-0.8c0.2-0.3,0.4-0.6,0.5-1c0.2-0.4,0.3-0.8,0.4-1.3
	c0.1-0.5,0.2-1.1,0.2-1.8v-19.4c0-0.7-0.1-1.2-0.2-1.7c-0.1-0.5-0.2-0.9-0.4-1.3c-0.1-0.4-0.3-0.7-0.5-1c-0.2-0.3-0.4-0.6-0.5-0.8
	c-0.2-0.3-0.2-0.6-0.1-0.8c0.1-0.2,0.4-0.4,0.7-0.4h14.5c1.9,0,3.5,0.2,5,0.7c1.5,0.5,2.7,1.2,3.7,2.1c1,0.9,1.8,2,2.3,3.3
	c0.5,1.3,0.8,2.7,0.8,4.2c0,2.1-0.5,4-1.5,5.6c-0.9,1.6-2.3,2.8-4.2,3.6l3.1,5.8c0.7,1.4,1.4,2.4,2.2,3.1
	C280.8,138.3,281.5,138.9,282.1,139.4z M267.4,123.9c0.9,0,1.7-0.1,2.3-0.3c0.6-0.2,1-0.5,1.4-0.8c0.4-0.4,0.6-0.8,0.7-1.4
	c0.1-0.6,0.2-1.2,0.2-1.8c0-0.7-0.1-1.3-0.2-1.8c-0.1-0.5-0.4-1-0.7-1.3c-0.3-0.4-0.8-0.7-1.4-0.9c-0.6-0.2-1.4-0.3-2.3-0.3h-4v8.6
	H267.4z"/>
<path class="st1" d="M295.2,134.5c0,0.7,0.1,1.3,0.2,1.8c0.1,0.5,0.2,0.9,0.4,1.3c0.2,0.4,0.4,0.7,0.5,1c0.2,0.3,0.4,0.5,0.5,0.8
	c0.2,0.3,0.2,0.6,0.1,0.8c-0.1,0.2-0.3,0.3-0.7,0.3h-10.2c-0.8,0-1-0.4-0.6-1.1c0.2-0.3,0.4-0.5,0.5-0.8c0.2-0.3,0.4-0.6,0.5-1
	c0.2-0.4,0.3-0.8,0.4-1.3c0.1-0.5,0.2-1.1,0.2-1.8v-19.4c0-0.7-0.1-1.2-0.2-1.7c-0.1-0.5-0.2-0.9-0.4-1.3c-0.1-0.4-0.3-0.7-0.5-1
	c-0.2-0.3-0.4-0.6-0.5-0.8c-0.2-0.3-0.2-0.6-0.1-0.8c0.1-0.2,0.4-0.4,0.7-0.4h10.2c0.4,0,0.6,0.1,0.7,0.4c0.1,0.2,0.1,0.5-0.1,0.8
	c-0.1,0.3-0.3,0.5-0.5,0.8c-0.2,0.3-0.4,0.6-0.5,1c-0.1,0.4-0.3,0.8-0.4,1.3c-0.1,0.5-0.2,1-0.2,1.7V134.5z"/>
<path class="st1" d="M312.8,108.7c1.9,0,3.6,0.4,5.1,1.2c1.5,0.8,2.8,1.8,3.9,3.3c1.1,1.4,1.9,3.1,2.5,5.1c0.6,2,0.9,4.2,0.9,6.6
	c0,2.4-0.3,4.6-0.9,6.6c-0.6,2-1.4,3.7-2.5,5.1c-1.1,1.4-2.4,2.5-3.9,3.3c-1.5,0.8-3.2,1.1-5.1,1.1c-1.9,0-3.6-0.4-5.1-1.1
	c-1.5-0.8-2.8-1.9-3.9-3.3c-1.1-1.4-1.9-3.1-2.6-5.1c-0.6-2-0.9-4.2-0.9-6.6c0-2.4,0.3-4.6,0.9-6.6c0.6-2,1.5-3.7,2.6-5.1
	c1.1-1.4,2.4-2.5,3.9-3.3C309.2,109.1,310.9,108.7,312.8,108.7z M312.8,134.9c1.2,0,2.1-0.9,2.7-2.7c0.7-1.8,1-4.3,1-7.3
	c0-1.5-0.1-2.9-0.3-4.1c-0.2-1.2-0.4-2.3-0.7-3.2c-0.3-0.9-0.7-1.6-1.2-2c-0.4-0.5-1-0.7-1.5-0.7c-0.6,0-1.1,0.2-1.6,0.7
	c-0.5,0.5-0.9,1.1-1.2,2c-0.3,0.9-0.6,1.9-0.7,3.2c-0.2,1.2-0.3,2.6-0.3,4.1c0,3.1,0.3,5.5,1,7.3C310.7,134,311.6,134.9,312.8,134.9
	z"/>
<path class="st1" d="M357.1,139.4c0.4,0.3,0.6,0.6,0.6,0.8c0,0.2-0.2,0.3-0.6,0.3h-11.3c-0.8,0-1.2-0.4-1.2-1.1
	c0-0.3,0.1-0.5,0.1-0.8c0.1-0.3,0.1-0.6,0-1c0-0.4-0.1-0.8-0.3-1.3c-0.1-0.5-0.4-1.1-0.7-1.8l-2.4-4.6h-2.9v4.6
	c0,0.7,0.1,1.3,0.2,1.8c0.1,0.5,0.2,0.9,0.4,1.3c0.2,0.4,0.4,0.7,0.5,1c0.2,0.3,0.4,0.5,0.5,0.8c0.2,0.3,0.2,0.6,0.1,0.8
	c-0.1,0.2-0.3,0.3-0.7,0.3h-10.2c-0.8,0-1-0.4-0.6-1.1c0.2-0.3,0.4-0.5,0.5-0.8c0.2-0.3,0.4-0.6,0.5-1c0.2-0.4,0.3-0.8,0.4-1.3
	c0.1-0.5,0.2-1.1,0.2-1.8v-19.4c0-0.7-0.1-1.2-0.2-1.7c-0.1-0.5-0.2-0.9-0.4-1.3c-0.1-0.4-0.3-0.7-0.5-1c-0.2-0.3-0.4-0.6-0.5-0.8
	c-0.2-0.3-0.2-0.6-0.1-0.8c0.1-0.2,0.4-0.4,0.7-0.4h14.5c1.9,0,3.5,0.2,5,0.7c1.5,0.5,2.7,1.2,3.7,2.1c1,0.9,1.8,2,2.3,3.3
	c0.5,1.3,0.8,2.7,0.8,4.2c0,2.1-0.5,4-1.5,5.6c-0.9,1.6-2.3,2.8-4.2,3.6l3.1,5.8c0.7,1.4,1.4,2.4,2.2,3.1
	C355.8,138.3,356.5,138.9,357.1,139.4z M342.3,123.9c0.9,0,1.7-0.1,2.3-0.3c0.6-0.2,1-0.5,1.4-0.8c0.4-0.4,0.6-0.8,0.7-1.4
	c0.1-0.6,0.2-1.2,0.2-1.8c0-0.7-0.1-1.3-0.2-1.8c-0.1-0.5-0.4-1-0.7-1.3c-0.3-0.4-0.8-0.7-1.4-0.9c-0.6-0.2-1.3-0.3-2.3-0.3h-4v8.6
	H342.3z"/>
<path class="st1" d="M369.6,117.5c0,0.8,0.4,1.4,1.3,1.9c0.9,0.5,1.9,0.9,3.2,1.3c1.3,0.4,2.7,0.9,4.1,1.4c1.5,0.5,2.9,1.1,4.2,1.9
	c1.3,0.8,2.4,1.8,3.2,3c0.9,1.2,1.3,2.7,1.3,4.6c0,3-1.1,5.3-3.4,6.9c-2.3,1.6-5.5,2.5-9.8,2.5c-1.7,0-3.1-0.1-4.4-0.3
	c-1.3-0.2-2.4-0.5-3.4-0.7c-1-0.3-1.8-0.5-2.6-0.7c-0.8-0.2-1.5-0.3-2.2-0.2c-0.4,0-0.6,0-0.7-0.2c-0.1-0.2-0.2-0.4-0.1-0.7l2.1-7.4
	c0.1-0.3,0.2-0.5,0.4-0.4c0.1,0,0.4,0.1,0.6,0.3c1.8,1.3,3.6,2.4,5.5,3.2c1.8,0.8,3.6,1.1,5.3,1.1c1.1,0,2.1-0.2,2.9-0.6
	c0.8-0.4,1.2-1.1,1.2-1.8c0-0.8-0.4-1.5-1.3-2c-0.9-0.5-1.9-1-3.2-1.4c-1.3-0.4-2.7-0.9-4.2-1.4c-1.5-0.5-2.8-1.1-4.1-1.9
	c-1.3-0.8-2.4-1.7-3.2-2.9c-0.9-1.2-1.3-2.7-1.3-4.5c0-1.5,0.3-2.9,1-4.1c0.7-1.2,1.6-2.3,2.8-3.1c1.2-0.9,2.6-1.5,4.3-1.9
	c1.6-0.4,3.4-0.7,5.4-0.7c1,0,2,0.1,2.9,0.2c0.9,0.1,1.8,0.2,2.6,0.3c0.9,0.1,1.7,0.2,2.5,0.2c0.8,0.1,1.7,0,2.5,0
	c0.4,0,0.6,0.1,0.7,0.3c0.2,0.2,0.2,0.4,0.1,0.7l-2.1,7.4c-0.1,0.4-0.2,0.5-0.4,0.5c-0.2,0-0.4-0.1-0.5-0.4
	c-0.4-0.6-0.9-1.1-1.5-1.5c-0.6-0.4-1.2-0.7-1.9-1c-0.7-0.2-1.4-0.4-2.1-0.5c-0.7-0.1-1.4-0.2-2-0.2c-0.7,0-1.3,0.1-2,0.2
	c-0.7,0.1-1.3,0.2-1.8,0.5c-0.5,0.2-1,0.5-1.3,0.8C369.8,116.6,369.6,117,369.6,117.5z"/>
</svg>
